HIERARCHY
ROOT hip
{
	OFFSET 0.000000 0.000000 0.000000 
	CHANNELS 6 Xposition Yposition Zposition Xrotation Zrotation Yrotation
	JOINT abdomen
	{
		OFFSET 0.000000 3.402643 0.000000 
		CHANNELS 3 Xrotation Zrotation Yrotation
		JOINT chest
		{
			OFFSET 0.000000 8.438565 -0.680529 
			CHANNELS 3 Xrotation Zrotation Yrotation
			JOINT neck
			{
				OFFSET 0.000000 10.207942 -0.272212 
				CHANNELS 3 Xrotation Zrotation Yrotation
				JOINT head
				{
					OFFSET 0.000000 3.130431 0.000000 
					CHANNELS 3 Xrotation Zrotation Yrotation
					End Site
					{
						OFFSET 0.000000 3.130435 0.000000 
					}
				}
			}
			JOINT lCollar
			{
				OFFSET 3.470700 6.669187 -0.816635 
				CHANNELS 3 Yrotation Zrotation Xrotation
				JOINT lShldr
				{
					OFFSET 3.198488 0.000000 0.000000 
					CHANNELS 3 Zrotation Yrotation Xrotation
					JOINT lForeArm
					{
						OFFSET 10.139888 0.000000 0.000000 
						CHANNELS 3 Yrotation Zrotation Xrotation
						JOINT lHand
						{
							OFFSET 8.370511 0.000000 0.000000 
							CHANNELS 3 Zrotation Yrotation Xrotation
							End Site
							{
								OFFSET 4.083176 0.000000 0.000000 
							}
						}
					}
				}
			}
			JOINT rCollar
			{
				OFFSET -3.470700 6.669187 -0.816635 
				CHANNELS 3 Yrotation Zrotation Xrotation
				JOINT rShldr
				{
					OFFSET -3.198488 0.000000 0.000000 
					CHANNELS 3 Zrotation Yrotation Xrotation
					JOINT rForeArm
					{
						OFFSET -10.139888 0.000000 0.000000 
						CHANNELS 3 Yrotation Zrotation Xrotation
						JOINT rHand
						{
							OFFSET -8.370511 0.000000 0.000000 
							CHANNELS 3 Zrotation Yrotation Xrotation
							End Site
							{
								OFFSET -4.083176 0.000000 0.000000 
							}
						}
					}
				}
			}
		}
	}
	JOINT lThigh
	{
		OFFSET 5.308129 -1.633274 1.361059 
		CHANNELS 3 Xrotation Zrotation Yrotation
		JOINT lShin
		{
			OFFSET -2.041588 -20.007561 0.000000 
			CHANNELS 3 Xrotation Zrotation Yrotation
			JOINT lFoot
			{
				OFFSET 0.000000 -19.190928 -1.224953 
				CHANNELS 3 Xrotation Yrotation Zrotation
				End Site
				{
					OFFSET 0.000000 -2.449906 4.627600 
				}
			}
		}
	}
	JOINT rThigh
	{
		OFFSET -5.308129 -1.633274 1.361059 
		CHANNELS 3 Xrotation Zrotation Yrotation
		JOINT rShin
		{
			OFFSET 2.041588 -20.007561 0.000000 
			CHANNELS 3 Xrotation Zrotation Yrotation
			JOINT rFoot
			{
				OFFSET 0.000000 -19.190928 -1.224953 
				CHANNELS 3 Xrotation Yrotation Zrotation
				End Site
				{
					OFFSET 0.000000 -2.449906 4.627600 
				}
			}
		}
	}
}
MOTION
Frames: 14
Frame Time: 0.011111
52.481064 48.436207 -36.532314 4.052155 9.936883 -73.161682 27.702303 -0.435128 4.548913 -19.575600 -1.844885 1.144660 -10.986923 -5.881650 -5.797729 13.631250 12.417466 -11.494157 -0.892466 -0.957000 1.218467 -63.975349 -22.624710 14.331698 -57.093384 8.969166 11.119574 8.524705 12.647240 -37.561897 -4.058817 0.661413 2.306497 59.753460 21.886843 7.935317 59.614998 -9.247374 12.243824 -8.534408 -12.637552 49.867046 -45.375568 15.457015 1.273458 54.317047 -3.363871 -7.630816 -22.484282 -7.539989 -5.710440 7.840907 -4.002800 1.975948 33.774418 5.091452 5.320035 -27.641748 -12.058090 -3.443280 
52.033428 48.402027 -36.207176 3.597000 9.813190 -73.025818 27.804068 -1.014557 4.064454 -19.605068 -1.659299 1.085322 -10.993358 -6.146876 -5.935491 13.628240 12.973514 -11.791163 -0.892466 -0.957000 1.218467 -63.420490 -23.524000 14.267797 -57.051270 8.965530 11.107350 8.524705 12.647240 -36.975964 -4.058817 0.661413 2.306497 59.365524 21.918064 7.925133 59.700176 -9.254457 12.279954 -8.534408 -12.637552 50.140480 -44.429180 14.890927 1.751528 54.865753 -3.305213 -7.685876 -23.338486 -7.466687 -5.722212 6.898227 -4.623959 1.379468 36.723938 4.885981 5.693708 -26.069136 -12.234090 -2.983072 
51.602737 48.353031 -35.889297 3.495744 9.527731 -72.801651 28.009375 -1.009891 3.613751 -19.693027 -1.629700 0.960608 -10.932399 -6.465376 -5.980705 13.623901 13.560393 -11.896892 -0.892466 -0.957000 1.218467 -63.031849 -24.409550 13.754095 -57.020081 8.963795 11.093821 8.524705 12.647240 -36.722061 -4.058817 0.661413 2.306497 59.000164 22.026638 7.931796 59.720436 -9.252504 12.282361 -8.534408 -12.637552 50.296734 -43.682655 14.645330 1.913136 55.336422 -3.264265 -7.713917 -23.597969 -8.078991 -6.014860 5.638896 -4.818844 1.050331 40.485653 4.602359 6.142408 -24.456793 -11.964173 -2.374825 
51.198357 48.259880 -35.549641 3.309553 9.291917 -72.481842 28.191761 -1.029497 3.151595 -19.800407 -1.756317 0.848072 -10.887815 -6.648239 -5.981561 13.699846 14.048744 -11.879683 -0.892466 -0.957000 1.218467 -62.466923 -25.523512 13.470233 -56.785484 8.928333 10.984200 8.524705 12.647240 -36.985725 -4.058817 0.661413 2.306497 58.693836 22.113813 8.023274 59.796230 -9.262506 12.316649 -8.534408 -12.637552 50.706886 -43.074814 14.277073 2.115530 55.786713 -3.205885 -7.769892 -23.504702 -8.984348 -6.425102 4.265975 -5.260603 0.451679 44.176468 4.308961 6.558079 -22.445490 -11.418153 -1.594565 
50.779148 48.158852 -35.234177 2.442681 9.237923 -72.475136 28.414627 -2.138190 2.569479 -19.741976 -1.523051 0.824052 -11.066836 -6.778187 -6.022778 13.752131 14.477877 -11.969281 -0.892466 -0.957000 1.218467 -61.906212 -26.969933 13.200724 -56.572563 8.896278 10.886690 8.524705 12.647240 -37.552135 -4.058817 0.661413 2.306497 58.322262 22.339569 7.945113 59.902847 -9.272685 12.373427 -8.534408 -12.637552 51.195171 -41.947495 13.425799 2.966585 56.178223 -3.176575 -7.806424 -23.607349 -9.660899 -6.769300 2.587900 -6.483664 -0.052928 48.153442 3.947719 7.003620 -19.850235 -11.180340 -0.824585 
50.351479 48.062069 -34.961365 1.568368 9.078851 -72.553711 28.787672 -3.374679 2.088422 -19.673973 -1.084502 0.827476 -11.164514 -7.146029 -6.217063 13.559236 15.012373 -12.424214 -0.892466 -0.957000 1.218467 -61.389214 -28.496092 13.335561 -56.552124 8.896906 10.883188 8.524705 12.647240 -37.698616 -4.058817 0.661413 2.306497 57.711403 22.581760 7.840983 59.998856 -9.280231 12.408717 -8.534408 -12.637552 51.761574 -40.717331 12.761579 4.006811 56.609715 -3.119633 -7.831920 -23.870150 -10.129501 -7.024059 0.849902 -7.546788 -0.144612 52.278763 3.547113 7.413869 -17.300657 -11.111239 -0.173365 
49.952847 47.956207 -34.692181 0.911168 8.912940 -72.341087 29.192629 -4.119524 1.276224 -19.791534 -0.703557 0.698052 -10.978239 -7.483119 -6.345923 13.077719 15.360460 -12.766026 -0.892466 -0.957000 1.218467 -60.987743 -30.016537 13.205021 -56.393364 8.876136 10.816030 8.524705 12.647240 -38.128307 -4.058817 0.661413 2.306497 57.051537 22.864014 8.030839 60.116306 -9.290908 12.466220 -8.534408 -12.637552 52.181499 -39.727005 12.183626 4.849679 57.078949 -3.071465 -7.893229 -24.202133 -10.595247 -7.311809 -1.043519 -8.380517 -0.397662 56.472588 3.116800 7.828898 -15.616338 -10.766643 0.302727 
49.569332 47.837952 -34.437511 0.248641 8.769878 -72.091827 29.587173 -4.859203 0.281657 -19.948175 -0.323353 0.528238 -10.755626 -7.558934 -6.382576 12.585298 15.517828 -12.873577 -0.892466 -0.957000 1.218467 -60.548050 -31.271803 13.029374 -56.404140 8.878866 10.825905 8.524705 12.647240 -38.606823 -4.058817 0.661413 2.306497 56.563133 23.209574 8.385718 60.328262 -9.303106 12.552608 -8.534408 -12.637552 52.425640 -38.760468 11.548917 5.620366 57.558475 -3.012858 -7.940276 -24.577841 -11.156867 -7.626032 -3.065011 -9.271393 -0.810890 60.640339 2.666126 8.174355 -14.779114 -10.104990 0.611664 
49.176437 47.713341 -34.201595 -0.199793 8.556868 -71.895340 29.965204 -5.510118 -0.352769 -19.919125 -0.100326 0.436926 -10.721331 -7.347743 -6.497122 12.161918 15.562430 -13.088922 -0.892466 -0.957000 1.218467 -59.819283 -32.820042 13.653331 -56.562901 8.899594 10.894592 8.524705 12.647240 -38.255257 -4.058817 0.661413 2.306497 56.131180 23.455690 8.886267 60.797718 -9.338367 12.765151 -8.534408 -12.637552 53.128761 -37.839363 11.288318 6.391878 58.027916 -2.972378 -7.986491 -24.699032 -11.924786 -8.023004 -5.077884 -9.891597 -1.118166 64.741753 2.177996 8.510182 -14.640524 -9.532626 0.766847 
48.768433 47.602039 -33.963871 -0.892882 8.364406 -71.770882 30.394035 -6.454240 -1.118370 -19.831533 0.161499 0.345461 -10.794159 -7.121268 -6.608855 11.888644 15.683226 -13.291715 -0.892466 -0.957000 1.218467 -58.940872 -34.578182 14.602509 -56.659237 8.915797 10.936653 8.524705 12.647240 -37.698616 -4.058817 0.661413 2.306497 55.748936 23.700310 9.334652 61.277225 -9.369145 12.989944 -8.534408 -12.637552 53.763531 -36.661663 10.796968 7.379059 58.302380 -2.934742 -7.998375 -24.832207 -12.506305 -8.356147 -7.105656 -10.775232 -1.382401 68.789063 1.689433 8.797594 -14.615903 -9.038035 0.881296 
48.370098 47.523094 -33.722507 -1.900207 8.058810 -71.597130 31.154135 -7.493494 -2.273462 -20.047029 0.687425 0.179798 -10.636137 -7.442484 -6.589498 11.740233 16.245781 -13.288216 -0.892466 -0.957000 1.218467 -58.389069 -36.181583 14.978435 -56.615986 8.905753 10.906789 8.524705 12.647240 -37.610729 -4.058817 0.661413 2.306497 55.115952 23.931711 9.931964 61.659348 -9.384778 13.150390 -8.534408 -12.637552 54.095562 -35.099155 9.918378 8.346456 58.439598 -2.933188 -7.998987 -25.222286 -12.817998 -8.578610 -8.979896 -12.034562 -1.800815 72.714119 1.171879 9.048637 -14.627583 -8.606253 0.980219 
47.959663 47.457764 -33.422173 -4.332615 7.976101 -71.980461 32.175476 -10.042442 -4.084698 -20.233932 1.583313 0.013183 -10.501997 -7.933558 -6.508245 11.804411 16.774799 -13.182883 -0.892466 -0.957000 1.218467 -57.873436 -37.776535 15.336959 -56.657955 8.910431 10.928596 8.524705 12.647240 -37.015034 -4.058817 0.661413 2.306497 54.102825 24.181940 11.192697 62.182098 -9.410953 13.391500 -8.534408 -12.637552 54.759624 -32.548096 7.626679 10.127374 58.409840 -2.925068 -8.011573 -25.580015 -13.166121 -8.824043 -11.014805 -15.193921 -1.949794 76.539024 0.674122 9.248188 -14.963276 -7.589272 1.117345 
47.575851 47.386990 -33.198357 -5.137444 8.029413 -71.877731 32.479797 -10.962950 -5.227696 -20.303181 2.067960 -0.165356 -10.589593 -7.917809 -6.518172 11.883278 16.745356 -13.200003 -0.892466 -0.957000 1.218467 -57.193443 -39.287670 15.703930 -57.157207 8.977193 11.141991 8.524705 12.647240 -36.438854 -4.058817 0.661413 2.306497 53.199291 24.438295 12.738104 62.843300 -9.436184 13.695250 -8.534408 -12.637552 55.697124 -31.519735 6.824828 10.972179 58.478912 -2.913713 -8.001454 -25.506708 -13.709386 -9.116546 -13.589819 -16.606035 -2.275620 80.331139 0.165992 9.436142 -15.290022 -6.877289 1.240203 
47.187801 47.323174 -32.971516 -4.850580 7.397077 -71.471260 33.037136 -10.338571 -5.492132 -20.498491 2.005671 -0.297870 -10.520459 -7.873964 -6.655354 11.667922 16.718945 -13.475113 -0.892466 -0.957000 1.218467 -57.157234 -41.046032 15.399865 -57.443291 9.011039 11.268205 8.524705 12.647240 -37.356827 -4.058817 0.661413 2.306497 52.542912 24.600222 13.802525 63.418571 -9.450673 13.963711 -8.534408 -12.637552 56.380718 -30.580290 7.233714 11.163207 58.615654 -2.905457 -8.017707 -25.616369 -14.444539 -9.549739 -15.320147 -16.540390 -3.012448 83.829834 -0.331032 9.562140 -15.509314 -6.986593 1.166728 
